PathFileType	4	(X/Y/Z)	C:/Users/opensim2020/Desktop/walking_exp_matlab/subject06_walking14_straight_03.trc	
DataRate	CameraRate	NumFrames	NumMarkers	Units	OrigDataRate	OrigDataStartFrame	OrigNumFrames	
100.00	100.00	4	45	mm	100.00	2295	233	
Frame#	Time	LFHD			RFHD			LBHD			RBHD			C7			T10			CLAV			STRN			RBAK			LSHO			LUPA			LELB			LFRM			LWRA			LWRB			LFIN			RSHO			RUPA			RELB			RFRM			RWRA			RWRB			RFIN			LASI			RASI			LPSI			RPSI			LTHI			LKNE			LTIB			LANK			LHEE			LTOE			RTHI			RKNE			RTIB			RANK			RHEE			RTOE			*39			*40			*41			*42			*43			*44			
		X1	Y1	Z1	X2	Y2	Z2	X3	Y3	Z3	X4	Y4	Z4	X5	Y5	Z5	X6	Y6	Z6	X7	Y7	Z7	X8	Y8	Z8	X9	Y9	Z9	X10	Y10	Z10	X11	Y11	Z11	X12	Y12	Z12	X13	Y13	Z13	X14	Y14	Z14	X15	Y15	Z15	X16	Y16	Z16	X17	Y17	Z17	X18	Y18	Z18	X19	Y19	Z19	X20	Y20	Z20	X21	Y21	Z21	X22	Y22	Z22	X23	Y23	Z23	X24	Y24	Z24	X25	Y25	Z25	X26	Y26	Z26	X27	Y27	Z27	X28	Y28	Z28	X29	Y29	Z29	X30	Y30	Z30	X31	Y31	Z31	X32	Y32	Z32	X33	Y33	Z33	X34	Y34	Z34	X35	Y35	Z35	X36	Y36	Z36	X37	Y37	Z37	X38	Y38	Z38	X39	Y39	Z39	X40	Y40	Z40	X41	Y41	Z41	X42	Y42	Z42	X43	Y43	Z43	X44	Y44	Z44	X45	Y45	Z45	

88	0.870	1381.61218	-107.69517	1669.24463	1513.17480	-99.65260	1661.79749	1390.60718	-238.29529	1608.99377	1520.27808	-229.00768	1607.13928	1449.94299	-227.88716	1455.26233	1471.20618	-272.27408	1130.59119	1447.87964	-117.26465	1378.40991	1445.92395	-82.12003	1201.20520	1541.93604	-296.62793	1291.04614	1286.71692	-177.72337	1406.62720	1224.18127	-222.38496	1207.03235	1220.88696	-253.44385	1099.14429	1202.71570	-267.35272	948.66205	1246.60986	-236.87219	822.80902	1208.33130	-296.10532	833.16486	1211.52771	-278.65213	743.32550	1607.45203	-154.48058	1415.65491	1712.86646	-149.08583	1225.24744	1735.51196	-104.24203	1113.42627	1751.27539	-33.49587	1017.74762	1708.41309	83.40232	927.98749	1755.71497	42.50292	903.60345	1752.89868	113.64119	859.52429	1356.49976	-98.62173	967.22937	1575.22595	-98.47585	968.67719	1385.29626	-259.37018	993.07233	1553.79333	-250.12239	998.57336	1289.75305	-109.39876	658.70221	1315.25708	-57.11385	504.43906	1318.13428	-62.96650	249.67548	1352.88855	-36.92240	77.33315	1401.99072	-70.33040	58.06929	1346.03113	108.77191	61.98744	1619.83594	-188.80328	633.95197	1596.16284	-207.81058	509.13760	1584.00854	-304.89554	257.07458	1527.56787	-346.68420	76.74787	1481.06384	-387.84241	56.26100	1533.48267	-196.34865	36.97561	1445.66943	-206.20218	1705.22339															 
89	0.880	1380.96887	-97.97435	1667.54089	1512.46216	-89.81779	1660.35107	1390.14600	-228.49840	1607.31714	1519.67896	-219.24263	1605.70862	1449.91321	-218.29399	1453.66187	1471.24280	-262.35785	1128.90247	1447.64844	-107.46335	1376.99500	1445.93909	-72.23103	1199.70898	1542.28418	-286.64972	1289.39331	1286.61157	-168.67435	1405.02563	1224.49927	-215.27826	1205.95471	1221.54919	-247.58167	1098.44092	1203.78015	-263.35455	948.09705	1247.00049	-233.11334	822.34222	1209.74695	-292.78537	832.80969	1213.09021	-276.81668	742.93311	1607.21594	-144.41685	1414.35779	1713.10205	-138.35007	1224.28906	1736.02710	-92.63000	1112.87488	1751.48486	-20.35496	1018.45898	1708.09485	97.89076	930.82727	1755.44043	57.60109	905.64282	1751.92297	128.93410	862.59100	1356.87561	-87.90842	965.71436	1575.61414	-88.77272	967.16980	1384.92590	-248.73723	991.46405	1553.54382	-240.42989	996.99377	1289.31567	-99.80750	657.00275	1315.26379	-46.52364	503.43515	1318.39514	-41.43045	248.62589	1353.12537	-6.40408	77.61255	1402.24866	-39.11454	57.78838	1346.75745	140.03593	65.05453	1619.84277	-181.15797	632.72919	1596.32825	-201.12733	508.04947	1583.77124	-301.83356	257.16388	1527.43127	-346.15503	77.43074	1480.77661	-387.33319	57.17422	1533.53503	-196.11246	36.86959	1445.04370	-196.43832	1703.65442															 
90	0.890	1380.25671	-88.19344	1665.81470	1511.79871	-79.93292	1658.83057	1389.68518	-218.73723	1605.58350	1519.04163	-209.56570	1604.19177	1449.69812	-208.14600	1451.91235	1471.12451	-252.38208	1127.09375	1447.37573	-97.66422	1375.43933	1445.90442	-62.32127	1198.17126	1542.45276	-276.39911	1287.78906	1286.45618	-159.50197	1403.28955	1224.71497	-207.87077	1204.78186	1222.39966	-241.30600	1097.44836	1204.76196	-258.91150	947.41010	1248.48853	-230.35809	821.19507	1211.31897	-289.99625	832.46912	1214.48596	-274.31680	742.41943	1606.92676	-134.28786	1413.01672	1713.16150	-127.65131	1223.20935	1736.38391	-81.20656	1112.21619	1751.60730	-7.61642	1018.89240	1707.52271	112.22526	933.44806	1755.10352	72.12012	907.37817	1751.77100	144.78270	865.84174	1357.15991	-76.53999	964.10980	1575.94165	-78.99409	965.66254	1384.41406	-238.20836	989.78448	1553.15186	-230.68925	995.24188	1288.69360	-89.91381	655.27783	1315.13367	-35.94859	502.11862	1318.73584	-20.26624	247.85110	1353.21350	22.23974	78.49818	1403.06909	-9.22735	58.08550	1347.55774	170.16386	68.79918	1619.83496	-173.62857	631.53156	1596.04883	-193.98665	506.84390	1583.52905	-298.74615	257.30475	1527.20935	-345.60184	78.23505	1480.46948	-386.85388	58.39316	1533.56592	-195.93069	36.82552	1444.36414	-186.57069	1702.03381															 
91	0.900	1379.51050	-78.31361	1664.00049	1511.09668	-69.94571	1657.21899	1389.10120	-208.85594	1603.78088	1518.35754	-199.77380	1602.63098	1449.46387	-198.20625	1450.19446	1470.87854	-242.29256	1125.25085	1446.98621	-87.77263	1373.77393	1445.85498	-52.30950	1196.57544	1542.66162	-266.31027	1286.05432	1286.26025	-150.17064	1401.47253	1224.77747	-200.29543	1203.58716	1222.66516	-234.97989	1096.75269	1205.61206	-254.00342	946.65533	1248.66492	-225.58655	820.55060	1212.67371	-286.27460	832.03436	1215.74939	-271.24695	741.83350	1606.57751	-124.11739	1411.57068	1713.14746	-116.98302	1221.99756	1736.59924	-69.94591	1111.40344	1751.63477	4.83711	1019.14905	1707.16211	125.55707	935.52716	1754.64563	86.23650	908.82770	1750.96326	159.52783	868.38354	1357.57910	-65.71259	962.52136	1576.07349	-68.88129	964.23608	1383.91101	-227.07774	987.89734	1552.68433	-220.86281	993.43970	1287.86072	-79.65094	653.59766	1314.69116	-25.52691	500.63248	1318.93811	0.32984	247.15926	1353.53406	49.77311	79.49619	1403.53516	19.11666	58.63776	1348.26221	198.34322	73.50382	1619.90088	-165.50710	630.22406	1596.17725	-186.88908	505.70798	1583.14929	-295.40430	257.58060	1527.03418	-344.97867	79.25954	1480.10938	-386.28104	59.53635	1533.75769	-196.15720	36.80942	1443.61682	-176.65393	1700.30798															 
